<svg width="170" height="38" viewBox="0 0 170 38" fill="none" xmlns="http://www.w3.org/2000/svg">
<path opacity="0.5" d="M40.0652 0.256714L30.2601 34.9917C30.2102 35.1494 30.0108 35.1967 29.8945 35.0863L23.3301 28.8583L28.2492 11.4514C28.2991 11.2937 28.1495 11.1518 27.9833 11.1991L9.63617 15.8662L3.10498 9.66969C2.98865 9.55932 3.03851 9.37011 3.20469 9.32281L39.7993 0.00444022C39.9655 -0.027094 40.115 0.11481 40.0652 0.256714Z" fill="#00B37E"/>
<path opacity="0.5" d="M23.3297 28.858L20.8037 37.8452C20.7538 38.0029 20.5544 38.0502 20.4381 37.9398L0.0634003 18.6251C-0.0529313 18.5147 -0.00307518 18.3255 0.163113 18.2782L9.63583 15.8658L23.3297 28.858Z" fill="#00B37E"/>
<path d="M28.2484 11.4511L23.3292 28.858L9.63533 15.8659L27.9825 11.1988C28.1487 11.1515 28.2982 11.2934 28.2484 11.4511Z" fill="#00B37E"/>
<path d="M61.65 25.3651H57.6898L57.7148 22.4418H61.65C62.6328 22.4418 63.4615 22.2211 64.1361 21.7797C64.8107 21.3299 65.3188 20.6761 65.6602 19.8183C66.01 18.9604 66.1849 17.9235 66.1849 16.7076V15.8206C66.1849 14.8878 66.085 14.0674 65.8851 13.3595C65.6936 12.6516 65.4062 12.0561 65.0231 11.573C64.64 11.09 64.1694 10.7277 63.6114 10.4861C63.0534 10.2363 62.4121 10.1114 61.6875 10.1114H57.6149V7.17554H61.6875C62.9035 7.17554 64.0154 7.38375 65.0231 7.80018C66.0392 8.20828 66.9179 8.79544 67.6591 9.56167C68.4003 10.3279 68.9708 11.244 69.3706 12.3101C69.7787 13.3678 69.9828 14.5463 69.9828 15.8456V16.7076C69.9828 17.9985 69.7787 19.177 69.3706 20.243C68.9708 21.3091 68.4003 22.2252 67.6591 22.9915C66.9262 23.7494 66.0475 24.3365 65.0231 24.753C64.007 25.1611 62.8827 25.3651 61.65 25.3651ZM59.8136 7.17554V25.3651H56.0658V7.17554H59.8136Z" fill="#E1E1E6"/>
<path d="M79.9895 7.17554V25.3651H76.2542V7.17554H79.9895ZM85.5863 7.17554V10.1114H70.7448V7.17554H85.5863Z" fill="#E1E1E6"/>
<path d="M95.1308 7.17554H98.304L102.976 20.5304L107.649 7.17554H110.822L104.251 25.3651H101.702L95.1308 7.17554ZM93.4193 7.17554H96.58L97.1547 20.1931V25.3651H93.4193V7.17554ZM109.373 7.17554H112.546V25.3651H108.798V20.1931L109.373 7.17554Z" fill="#E1E1E6"/>
<path d="M115.032 18.7439V18.4816C115.032 17.4905 115.174 16.5785 115.457 15.7456C115.74 14.9044 116.152 14.1757 116.693 13.5594C117.235 12.9431 117.901 12.4642 118.692 12.1227C119.484 11.7729 120.391 11.598 121.416 11.598C122.44 11.598 123.352 11.7729 124.152 12.1227C124.951 12.4642 125.622 12.9431 126.163 13.5594C126.713 14.1757 127.129 14.9044 127.412 15.7456C127.696 16.5785 127.837 17.4905 127.837 18.4816V18.7439C127.837 19.7267 127.696 20.6386 127.412 21.4798C127.129 22.3127 126.713 23.0414 126.163 23.6661C125.622 24.2824 124.955 24.7613 124.164 25.1028C123.373 25.4442 122.465 25.615 121.441 25.615C120.416 25.615 119.504 25.4442 118.705 25.1028C117.914 24.7613 117.243 24.2824 116.693 23.6661C116.152 23.0414 115.74 22.3127 115.457 21.4798C115.174 20.6386 115.032 19.7267 115.032 18.7439ZM118.63 18.4816V18.7439C118.63 19.3102 118.68 19.8391 118.78 20.3305C118.88 20.8219 119.038 21.255 119.255 21.6297C119.479 21.9962 119.771 22.2835 120.129 22.4918C120.487 22.7 120.924 22.8041 121.441 22.8041C121.94 22.8041 122.369 22.7 122.728 22.4918C123.086 22.2835 123.373 21.9962 123.59 21.6297C123.806 21.255 123.964 20.8219 124.064 20.3305C124.173 19.8391 124.227 19.3102 124.227 18.7439V18.4816C124.227 17.9319 124.173 17.4155 124.064 16.9324C123.964 16.4411 123.802 16.008 123.577 15.6332C123.36 15.2501 123.073 14.9502 122.715 14.7337C122.357 14.5172 121.924 14.4089 121.416 14.4089C120.908 14.4089 120.475 14.5172 120.117 14.7337C119.767 14.9502 119.479 15.2501 119.255 15.6332C119.038 16.008 118.88 16.4411 118.78 16.9324C118.68 17.4155 118.63 17.9319 118.63 18.4816Z" fill="#E1E1E6"/>
<path d="M133.571 14.7337V25.3651H129.973V11.8479H133.346L133.571 14.7337ZM133.047 18.1318H132.072C132.072 17.1323 132.201 16.2328 132.459 15.4333C132.718 14.6254 133.08 13.9383 133.546 13.372C134.013 12.7973 134.567 12.3601 135.208 12.0602C135.857 11.7521 136.582 11.598 137.382 11.598C138.015 11.598 138.593 11.6896 139.118 11.8728C139.643 12.0561 140.093 12.3476 140.467 12.7473C140.85 13.1471 141.142 13.676 141.342 14.3339C141.55 14.9919 141.654 15.7956 141.654 16.745V25.3651H138.031V16.7326C138.031 16.1329 137.948 15.6665 137.781 15.3334C137.615 15.0002 137.369 14.767 137.044 14.6338C136.728 14.4922 136.336 14.4214 135.87 14.4214C135.387 14.4214 134.966 14.5172 134.608 14.7087C134.258 14.9003 133.967 15.1668 133.734 15.5083C133.509 15.8414 133.338 16.2328 133.221 16.6826C133.105 17.1323 133.047 17.6154 133.047 18.1318Z" fill="#E1E1E6"/>
<path d="M150.612 25.615C149.562 25.615 148.621 25.4484 147.788 25.1152C146.955 24.7738 146.247 24.3032 145.664 23.7036C145.09 23.1039 144.648 22.4085 144.34 21.6173C144.032 20.8177 143.878 19.9682 143.878 19.0687V18.569C143.878 17.5446 144.024 16.6076 144.315 15.7581C144.607 14.9086 145.023 14.1715 145.564 13.5469C146.114 12.9222 146.78 12.4433 147.563 12.1102C148.346 11.7687 149.229 11.598 150.212 11.598C151.17 11.598 152.019 11.7562 152.76 12.0727C153.502 12.3892 154.122 12.839 154.622 13.422C155.13 14.005 155.513 14.7046 155.771 15.5208C156.029 16.3286 156.158 17.2281 156.158 18.2192V19.7183H145.414V17.3197H152.623V17.0449C152.623 16.5452 152.531 16.0996 152.348 15.7081C152.173 15.3084 151.907 14.9919 151.548 14.7587C151.19 14.5255 150.732 14.4089 150.174 14.4089C149.7 14.4089 149.291 14.513 148.95 14.7212C148.609 14.9294 148.329 15.2209 148.113 15.5957C147.905 15.9705 147.746 16.4119 147.638 16.9199C147.538 17.4197 147.488 17.9693 147.488 18.569V19.0687C147.488 19.6101 147.563 20.1098 147.713 20.5679C147.871 21.0259 148.092 21.4215 148.375 21.7547C148.667 22.0878 149.017 22.346 149.425 22.5292C149.841 22.7125 150.312 22.8041 150.836 22.8041C151.486 22.8041 152.09 22.6791 152.648 22.4293C153.214 22.1711 153.701 21.7838 154.11 21.2675L155.859 23.1664C155.575 23.5745 155.188 23.9659 154.697 24.3407C154.214 24.7155 153.631 25.0236 152.948 25.2652C152.265 25.4984 151.486 25.615 150.612 25.615Z" fill="#E1E1E6"/>
<path d="M162.042 23.841L165.628 11.8479H169.488L164.054 27.4014C163.937 27.7429 163.779 28.1094 163.579 28.5008C163.388 28.8922 163.125 29.2629 162.792 29.6127C162.467 29.9708 162.055 30.2623 161.555 30.4872C161.064 30.712 160.46 30.8245 159.744 30.8245C159.402 30.8245 159.123 30.8037 158.907 30.762C158.69 30.7204 158.432 30.6621 158.132 30.5871V27.9511C158.224 27.9511 158.32 27.9511 158.42 27.9511C158.519 27.9595 158.615 27.9636 158.707 27.9636C159.182 27.9636 159.569 27.9095 159.869 27.8012C160.169 27.6929 160.41 27.5264 160.593 27.3015C160.777 27.085 160.922 26.8018 161.031 26.452L162.042 23.841ZM160.543 11.8479L163.479 21.6422L163.991 25.4526L161.543 25.7149L156.683 11.8479H160.543Z" fill="#E1E1E6"/>
</svg>